<?xml version="1.0" encoding="UTF-8"?>
<svg id="Layer_1" data-name="Layer 1" xmlns="http://www.w3.org/2000/svg" viewBox="0 0 24 24">
  <defs>
    <style>
      .cls-1 {
        fill-rule: evenodd;
      }
    </style>
  </defs>
  <path class="cls-1" d="M12,0c3.18,0,6.23,1.26,8.49,3.51,2.25,2.25,3.51,5.3,3.51,8.49s-1.26,6.23-3.51,8.49c-2.25,2.25-5.3,3.51-8.49,3.51s-6.23-1.26-8.49-3.51C1.26,18.23,0,15.18,0,12,0,8.82,1.27,5.77,3.52,3.52,5.77,1.27,8.82,0,12,0Zm3.9,2.32c.71,1.01,1.27,2.12,1.65,3.3,.67-.24,1.31-.54,1.93-.9-1.01-1.04-2.23-1.86-3.57-2.4Zm4.59,3.62c-.79,.49-1.64,.88-2.51,1.19,.31,1.34,.49,2.71,.53,4.09h3.9c-.14-1.9-.81-3.73-1.92-5.28Zm0,12.12c1.11-1.55,1.77-3.38,1.92-5.28h-3.9c-.04,1.38-.22,2.75-.53,4.09,.88,.3,1.72,.7,2.51,1.19Zm-1.02,1.21c-.61-.36-1.26-.66-1.93-.89-.38,1.18-.93,2.29-1.65,3.3,1.34-.55,2.56-1.36,3.57-2.4Zm-6.69,3.02c1.61-.59,2.7-2.72,3.26-4.35-1.07-.25-2.16-.4-3.26-.44v4.79Zm0-6.36c1.24,.05,2.48,.21,3.69,.5,.27-1.2,.43-2.42,.47-3.65h-4.16v3.15Zm0-4.71h4.16c-.04-1.23-.2-2.45-.47-3.65-1.21,.29-2.45,.46-3.69,.5v3.15Zm0-4.71c1.1-.04,2.19-.19,3.26-.44-.56-1.63-1.65-3.76-3.26-4.35V6.5Zm-9.27-.57c-1.11,1.55-1.77,3.38-1.92,5.28h3.9c.04-1.38,.22-2.75,.53-4.09-.88-.3-1.72-.7-2.51-1.19Zm1.02-1.21c.61,.36,1.26,.66,1.93,.89,.38-1.18,.93-2.29,1.65-3.3-1.34,.54-2.56,1.36-3.57,2.4ZM11.22,1.71c-1.62,.59-2.71,2.72-3.26,4.35,1.07,.25,2.16,.4,3.26,.44V1.71Zm0,6.36c-1.24-.04-2.48-.21-3.69-.5-.27,1.2-.43,2.42-.47,3.65h4.16v-3.15Zm0,4.71H7.06c.04,1.23,.2,2.45,.47,3.65,1.21-.29,2.45-.46,3.69-.5v-3.15Zm0,9.51v-4.79c-1.1,.04-2.19,.19-3.26,.44,.56,1.63,1.65,3.76,3.26,4.35Zm-3.12-.61c-.71-1.01-1.27-2.12-1.65-3.3-.67,.24-1.31,.54-1.93,.89,1.01,1.04,2.23,1.86,3.57,2.4Zm-4.59-3.62c.79-.49,1.64-.88,2.51-1.19-.31-1.34-.49-2.72-.53-4.1H1.6c.14,1.9,.8,3.73,1.92,5.28Z"/>
</svg>